<mxfile host="app.diagrams.net" agent="Mozilla/5.0 (Windows NT 10.0; Win64; x64) AppleWebKit/537.36 (KHTML, like Gecko) Chrome/127.0.0.0 Safari/537.36 Edg/127.0.0.0" version="24.7.6">
  <diagram name="第 1 页" id="AZAsQ0l_xIf4udVlXanY">
    <mxGraphModel dx="1426" dy="791" grid="1" gridSize="10" guides="1" tooltips="1" connect="1" arrows="1" fold="1" page="1" pageScale="1" pageWidth="1200" pageHeight="1600" math="0" shadow="0">
      <root>
        <mxCell id="0" />
        <mxCell id="1" parent="0" />
        <mxCell id="zaWkkEv80FB03Rphdk8r-67" style="edgeStyle=orthogonalEdgeStyle;rounded=0;orthogonalLoop=1;jettySize=auto;html=1;exitX=0.5;exitY=1;exitDx=0;exitDy=0;entryX=0.5;entryY=0;entryDx=0;entryDy=0;" edge="1" parent="1" source="zaWkkEv80FB03Rphdk8r-48" target="zaWkkEv80FB03Rphdk8r-55">
          <mxGeometry relative="1" as="geometry" />
        </mxCell>
        <mxCell id="zaWkkEv80FB03Rphdk8r-48" value="用户请求自定义资源" style="rounded=0;whiteSpace=wrap;html=1;" vertex="1" parent="1">
          <mxGeometry x="560" y="60" width="120" height="60" as="geometry" />
        </mxCell>
        <mxCell id="zaWkkEv80FB03Rphdk8r-70" style="edgeStyle=orthogonalEdgeStyle;rounded=0;orthogonalLoop=1;jettySize=auto;html=1;exitX=0.5;exitY=1;exitDx=0;exitDy=0;entryX=0.5;entryY=0;entryDx=0;entryDy=0;" edge="1" parent="1" source="zaWkkEv80FB03Rphdk8r-49" target="zaWkkEv80FB03Rphdk8r-64">
          <mxGeometry relative="1" as="geometry" />
        </mxCell>
        <mxCell id="zaWkkEv80FB03Rphdk8r-49" value="" style="rounded=0;whiteSpace=wrap;html=1;" vertex="1" parent="1">
          <mxGeometry x="232.5" y="330" width="775" height="140" as="geometry" />
        </mxCell>
        <mxCell id="zaWkkEv80FB03Rphdk8r-50" value="自定义资源1" style="rounded=0;whiteSpace=wrap;html=1;" vertex="1" parent="1">
          <mxGeometry x="257.5" y="370" width="120" height="60" as="geometry" />
        </mxCell>
        <mxCell id="zaWkkEv80FB03Rphdk8r-51" value="自定义资源2" style="rounded=0;whiteSpace=wrap;html=1;" vertex="1" parent="1">
          <mxGeometry x="407.5" y="370" width="120" height="60" as="geometry" />
        </mxCell>
        <mxCell id="zaWkkEv80FB03Rphdk8r-52" value="自定义资源3" style="rounded=0;whiteSpace=wrap;html=1;" vertex="1" parent="1">
          <mxGeometry x="557.5" y="370" width="120" height="60" as="geometry" />
        </mxCell>
        <mxCell id="zaWkkEv80FB03Rphdk8r-53" value="自定义资源4" style="rounded=0;whiteSpace=wrap;html=1;" vertex="1" parent="1">
          <mxGeometry x="707.5" y="370" width="120" height="60" as="geometry" />
        </mxCell>
        <mxCell id="zaWkkEv80FB03Rphdk8r-54" value="自定义资源n" style="rounded=0;whiteSpace=wrap;html=1;" vertex="1" parent="1">
          <mxGeometry x="857.5" y="370" width="120" height="60" as="geometry" />
        </mxCell>
        <mxCell id="zaWkkEv80FB03Rphdk8r-65" style="edgeStyle=orthogonalEdgeStyle;rounded=0;orthogonalLoop=1;jettySize=auto;html=1;exitX=0;exitY=0.5;exitDx=0;exitDy=0;entryX=0;entryY=0.5;entryDx=0;entryDy=0;" edge="1" parent="1" source="zaWkkEv80FB03Rphdk8r-55" target="zaWkkEv80FB03Rphdk8r-48">
          <mxGeometry relative="1" as="geometry">
            <Array as="points">
              <mxPoint x="450" y="220" />
              <mxPoint x="450" y="90" />
            </Array>
          </mxGeometry>
        </mxCell>
        <mxCell id="zaWkkEv80FB03Rphdk8r-66" value="无权限" style="edgeLabel;html=1;align=center;verticalAlign=middle;resizable=0;points=[];" vertex="1" connectable="0" parent="zaWkkEv80FB03Rphdk8r-65">
          <mxGeometry x="0.0343" y="3" relative="1" as="geometry">
            <mxPoint as="offset" />
          </mxGeometry>
        </mxCell>
        <mxCell id="zaWkkEv80FB03Rphdk8r-68" style="edgeStyle=orthogonalEdgeStyle;rounded=0;orthogonalLoop=1;jettySize=auto;html=1;exitX=0.5;exitY=1;exitDx=0;exitDy=0;entryX=0.5;entryY=0;entryDx=0;entryDy=0;" edge="1" parent="1" source="zaWkkEv80FB03Rphdk8r-55" target="zaWkkEv80FB03Rphdk8r-49">
          <mxGeometry relative="1" as="geometry" />
        </mxCell>
        <mxCell id="zaWkkEv80FB03Rphdk8r-69" value="有权限" style="edgeLabel;html=1;align=center;verticalAlign=middle;resizable=0;points=[];" vertex="1" connectable="0" parent="zaWkkEv80FB03Rphdk8r-68">
          <mxGeometry x="-0.2333" relative="1" as="geometry">
            <mxPoint as="offset" />
          </mxGeometry>
        </mxCell>
        <mxCell id="zaWkkEv80FB03Rphdk8r-55" value="RBAC&lt;div&gt;权限管理器&lt;/div&gt;" style="rhombus;whiteSpace=wrap;html=1;" vertex="1" parent="1">
          <mxGeometry x="560" y="180" width="120" height="80" as="geometry" />
        </mxCell>
        <mxCell id="zaWkkEv80FB03Rphdk8r-72" style="edgeStyle=orthogonalEdgeStyle;rounded=0;orthogonalLoop=1;jettySize=auto;html=1;exitX=0.5;exitY=1;exitDx=0;exitDy=0;entryX=0.5;entryY=0;entryDx=0;entryDy=0;" edge="1" parent="1" source="zaWkkEv80FB03Rphdk8r-56" target="zaWkkEv80FB03Rphdk8r-57">
          <mxGeometry relative="1" as="geometry" />
        </mxCell>
        <mxCell id="zaWkkEv80FB03Rphdk8r-56" value="获取资源模型" style="rounded=0;whiteSpace=wrap;html=1;" vertex="1" parent="1">
          <mxGeometry x="560" y="680" width="120" height="60" as="geometry" />
        </mxCell>
        <mxCell id="zaWkkEv80FB03Rphdk8r-73" style="edgeStyle=orthogonalEdgeStyle;rounded=0;orthogonalLoop=1;jettySize=auto;html=1;exitX=0;exitY=0.5;exitDx=0;exitDy=0;entryX=0;entryY=0.5;entryDx=0;entryDy=0;" edge="1" parent="1" source="zaWkkEv80FB03Rphdk8r-57" target="zaWkkEv80FB03Rphdk8r-64">
          <mxGeometry relative="1" as="geometry">
            <Array as="points">
              <mxPoint x="430" y="840" />
              <mxPoint x="430" y="570" />
            </Array>
          </mxGeometry>
        </mxCell>
        <mxCell id="zaWkkEv80FB03Rphdk8r-74" value="无权限" style="edgeLabel;html=1;align=center;verticalAlign=middle;resizable=0;points=[];" vertex="1" connectable="0" parent="zaWkkEv80FB03Rphdk8r-73">
          <mxGeometry y="-1" relative="1" as="geometry">
            <mxPoint as="offset" />
          </mxGeometry>
        </mxCell>
        <mxCell id="zaWkkEv80FB03Rphdk8r-75" style="edgeStyle=orthogonalEdgeStyle;rounded=0;orthogonalLoop=1;jettySize=auto;html=1;exitX=0.5;exitY=1;exitDx=0;exitDy=0;entryX=0.5;entryY=0;entryDx=0;entryDy=0;" edge="1" parent="1" source="zaWkkEv80FB03Rphdk8r-57" target="zaWkkEv80FB03Rphdk8r-59">
          <mxGeometry relative="1" as="geometry" />
        </mxCell>
        <mxCell id="zaWkkEv80FB03Rphdk8r-76" value="有权限" style="edgeLabel;html=1;align=center;verticalAlign=middle;resizable=0;points=[];" vertex="1" connectable="0" parent="zaWkkEv80FB03Rphdk8r-75">
          <mxGeometry x="-0.0667" relative="1" as="geometry">
            <mxPoint as="offset" />
          </mxGeometry>
        </mxCell>
        <mxCell id="zaWkkEv80FB03Rphdk8r-57" value="ABAC&lt;div&gt;权限管理器&lt;/div&gt;" style="rhombus;whiteSpace=wrap;html=1;" vertex="1" parent="1">
          <mxGeometry x="560" y="800" width="120" height="80" as="geometry" />
        </mxCell>
        <mxCell id="zaWkkEv80FB03Rphdk8r-59" value="" style="rounded=0;whiteSpace=wrap;html=1;" vertex="1" parent="1">
          <mxGeometry x="448.75" y="970" width="342.5" height="240" as="geometry" />
        </mxCell>
        <mxCell id="zaWkkEv80FB03Rphdk8r-58" value="展示资源" style="rounded=0;whiteSpace=wrap;html=1;" vertex="1" parent="1">
          <mxGeometry x="641.25" y="1005" width="120" height="60" as="geometry" />
        </mxCell>
        <mxCell id="zaWkkEv80FB03Rphdk8r-60" value="删除资源" style="rounded=0;whiteSpace=wrap;html=1;" vertex="1" parent="1">
          <mxGeometry x="641.25" y="1115" width="120" height="60" as="geometry" />
        </mxCell>
        <mxCell id="zaWkkEv80FB03Rphdk8r-61" value="编辑资源" style="rounded=0;whiteSpace=wrap;html=1;" vertex="1" parent="1">
          <mxGeometry x="478.75" y="1115" width="120" height="60" as="geometry" />
        </mxCell>
        <mxCell id="zaWkkEv80FB03Rphdk8r-63" value="新增资源" style="rounded=0;whiteSpace=wrap;html=1;" vertex="1" parent="1">
          <mxGeometry x="478.75" y="1005" width="120" height="60" as="geometry" />
        </mxCell>
        <mxCell id="zaWkkEv80FB03Rphdk8r-71" style="edgeStyle=orthogonalEdgeStyle;rounded=0;orthogonalLoop=1;jettySize=auto;html=1;exitX=0.5;exitY=1;exitDx=0;exitDy=0;entryX=0.5;entryY=0;entryDx=0;entryDy=0;" edge="1" parent="1" source="zaWkkEv80FB03Rphdk8r-64" target="zaWkkEv80FB03Rphdk8r-56">
          <mxGeometry relative="1" as="geometry" />
        </mxCell>
        <mxCell id="zaWkkEv80FB03Rphdk8r-64" value="选择自定义资源" style="rounded=0;whiteSpace=wrap;html=1;" vertex="1" parent="1">
          <mxGeometry x="560" y="540" width="120" height="60" as="geometry" />
        </mxCell>
      </root>
    </mxGraphModel>
  </diagram>
</mxfile>
